<?xml version="1.0" encoding="UTF-8" standalone="no"?>
<!-- Created with Inkscape (http://www.inkscape.org/) -->

<svg
   xmlns:dc="http://purl.org/dc/elements/1.1/"
   xmlns:cc="http://creativecommons.org/ns#"
   xmlns:rdf="http://www.w3.org/1999/02/22-rdf-syntax-ns#"
   xmlns:svg="http://www.w3.org/2000/svg"
   xmlns="http://www.w3.org/2000/svg"
   xmlns:sodipodi="http://sodipodi.sourceforge.net/DTD/sodipodi-0.dtd"
   xmlns:inkscape="http://www.inkscape.org/namespaces/inkscape"
   width="48"
   height="48"
   viewBox="0 0 48 48"
   id="svg6395"
   version="1.1"
   inkscape:version="0.91 r13725"
   sodipodi:docname="MH-Streamstone Icon White.svg"
   inkscape:export-filename="C:\Users\gabie\Pictures\Custom Icons\Wiki Icons\Mantle Icon.png"
   inkscape:export-xdpi="523.63519"
   inkscape:export-ydpi="523.63519">
  <defs
     id="defs6397" />
  <sodipodi:namedview
     id="base"
     pagecolor="#ffffff"
     bordercolor="#666666"
     borderopacity="1.0"
     inkscape:pageopacity="0.0"
     inkscape:pageshadow="2"
     inkscape:zoom="5.6"
     inkscape:cx="25.189002"
     inkscape:cy="10.169948"
     inkscape:document-units="px"
     inkscape:current-layer="layer1"
     showgrid="true"
     units="px"
     inkscape:object-nodes="true"
     inkscape:window-width="1304"
     inkscape:window-height="745"
     inkscape:window-x="-8"
     inkscape:window-y="-8"
     inkscape:window-maximized="1"
     showguides="true"
     inkscape:guide-bbox="true"
     inkscape:snap-smooth-nodes="true">
    <inkscape:grid
       type="xygrid"
       id="grid6979" />
    <sodipodi:guide
       position="24,3"
       orientation="1,0"
       id="guide4164" />
  </sodipodi:namedview>
  <metadata
     id="metadata6400">
    <rdf:RDF>
      <cc:Work
         rdf:about="">
        <dc:format>image/svg+xml</dc:format>
        <dc:type
           rdf:resource="http://purl.org/dc/dcmitype/StillImage" />
        <dc:title></dc:title>
      </cc:Work>
    </rdf:RDF>
  </metadata>
  <g
     inkscape:label="Layer 1"
     inkscape:groupmode="layer"
     id="layer1"
     transform="translate(0,-1004.3622)">
    <path
       style="display:inline;fill:#ffffff;fill-opacity:1;fill-rule:evenodd;stroke:none;stroke-width:1px;stroke-linecap:butt;stroke-linejoin:miter;stroke-opacity:1"
       d="m 37.642557,1019.7905 -6.856986,21.7138 -6.856987,4.0876 0,-21.2301 12.571142,-5.7141 z"
       id="path5269"
       inkscape:connector-curvature="0" />
    <path
       style="display:inline;fill:#929292;fill-opacity:1;fill-rule:evenodd;stroke:none;stroke-width:1px;stroke-linecap:butt;stroke-linejoin:miter;stroke-opacity:1"
       d="m 23.928584,1008.3622 3.428494,2.2857 10.285479,7.9998 -13.713973,6.857 0,6.857 3.428494,1.1428 -3.428494,12.5711 -6.856986,-4.5713 -6.856986,-22.8566 9.142648,-1.1428 z"
       id="path5267"
       inkscape:connector-curvature="0" />
    <path
       style="display:inline;fill:#ffffff;fill-opacity:1;fill-rule:evenodd;stroke:none;stroke-width:1px;stroke-linecap:butt;stroke-linejoin:miter;stroke-opacity:1"
       d="m 10.214612,1018.6477 3.428493,1.1428 4.571324,0 5.714155,-5.7141 0,-5.7142 -6.856986,4.5713 z"
       id="path5240"
       inkscape:connector-curvature="0" />
    <path
       style="display:inline;fill:#929292;fill-opacity:1;fill-rule:evenodd;stroke:none;stroke-width:1px;stroke-linecap:butt;stroke-linejoin:miter;stroke-opacity:1"
       d="M 4.1428311,1040.6472 18.999634,1048.647 3,1046.3613 l 0,-5.7141 z"
       id="path5252"
       inkscape:connector-curvature="0" />
    <path
       inkscape:connector-curvature="0"
       id="path5259"
       style="display:inline;fill:none;fill-opacity:1;fill-rule:evenodd;stroke:#000000;stroke-width:2;stroke-linecap:round;stroke-linejoin:round;stroke-miterlimit:4;stroke-dasharray:none;stroke-opacity:1"
       d="m 23.928584,1008.3613 -2.285662,1.1428 -11.42831,9.1427 6.856986,22.8566 6.856986,4.5713 6.856986,-4.5713 6.856986,-22.8566 -11.42831,-9.1427 -2.285662,-1.1428 z m 0,9e-4 0,15.9996 13.713972,-5.7141" />
    <path
       inkscape:connector-curvature="0"
       style="display:inline;fill:#929292;fill-opacity:1;fill-rule:evenodd;stroke:#000000;stroke-width:2;stroke-linecap:round;stroke-linejoin:round;stroke-miterlimit:4;stroke-dasharray:none;stroke-opacity:1"
       d="m 28.499908,1048.3613 10.285479,-15.9997 6.214613,9.9997 -11.928768,6 z"
       id="path5257"
       sodipodi:nodetypes="ccccc" />
    <path
       inkscape:connector-curvature="0"
       style="display:inline;fill:none;fill-opacity:1;fill-rule:evenodd;stroke:#000000;stroke-width:2;stroke-linecap:round;stroke-linejoin:round;stroke-miterlimit:4;stroke-dasharray:none;stroke-opacity:1"
       d="m 12.142648,1036.0758 6.856986,12.5712 -15.9996341,-2.2857 0,-5.7141 5.714155,-4.5714 z"
       id="path5205" />
    <path
       style="display:inline;fill:#000000;fill-opacity:1;fill-rule:evenodd;stroke:none;stroke-width:1px;stroke-linecap:butt;stroke-linejoin:miter;stroke-opacity:1"
       d="m 23.928584,1011.7907 -10.285479,7.9998 5.714155,17.1425 5.714156,-2.2857 -1.142832,11.4283 6.856987,-14.8568 -4.571324,0 2.285662,-9.1426 -4.571325,2.2856 z"
       id="path5207"
       inkscape:connector-curvature="0" />
    <path
       style="display:inline;fill:#ffffff;fill-opacity:1;fill-rule:evenodd;stroke:#ffffff;stroke-width:1.99999988;stroke-linecap:round;stroke-linejoin:round;stroke-miterlimit:4;stroke-dasharray:none;stroke-opacity:1"
       d="m 5.6432994,1024.3618 c 0,0 0,3.4285 -3.4285044,3.4285 0,0 3.4285044,0 3.4285044,3.4285 0,-3.4285 3.428493,-3.4285 3.428493,-3.4285 -3.428493,0 -3.428493,-3.4285 -3.428493,-3.4285 z"
       id="path5126-3"
       inkscape:connector-curvature="0" />
    <path
       style="display:inline;fill:#ffffff;fill-opacity:1;fill-rule:evenodd;stroke:#ffffff;stroke-width:1.99999988;stroke-linecap:round;stroke-linejoin:round;stroke-miterlimit:4;stroke-dasharray:none;stroke-opacity:1"
       d="m 38.785387,1008.3622 c 0,0 0,3.4285 -3.428504,3.4285 0,0 3.428504,0 3.428504,3.4285 0,-3.4285 3.428493,-3.4285 3.428493,-3.4285 -3.428493,0 -3.428493,-3.4285 -3.428493,-3.4285 z"
       id="path5126-3-4"
       inkscape:connector-curvature="0" />
    <path
       style="display:inline;fill:#929292;fill-opacity:1;fill-rule:evenodd;stroke:none;stroke-width:1px;stroke-linecap:butt;stroke-linejoin:miter;stroke-opacity:1"
       d="m 28.499909,1028.9332 2.285662,-3.4285 1.142831,2.2856 z"
       id="path5242"
       inkscape:connector-curvature="0" />
    <path
       style="display:inline;fill:#474747;fill-opacity:1;fill-rule:evenodd;stroke:none;stroke-width:1px;stroke-linecap:butt;stroke-linejoin:miter;stroke-opacity:1"
       d="m 26.214247,1019.7905 1.142831,-3.4285 3.428493,2.2857 z"
       id="path5244"
       inkscape:connector-curvature="0" />
    <path
       style="display:inline;fill:#474747;fill-opacity:1;fill-rule:evenodd;stroke:none;stroke-width:1px;stroke-linecap:butt;stroke-linejoin:miter;stroke-opacity:1"
       d="m 19.35726,1039.2187 2.285662,2.2856 1.142831,-3.4285 z"
       id="path5246"
       inkscape:connector-curvature="0"
       sodipodi:nodetypes="cccc" />
    <path
       style="display:inline;fill:#474747;fill-opacity:1;fill-rule:evenodd;stroke:none;stroke-width:1px;stroke-linecap:butt;stroke-linejoin:miter;stroke-opacity:1"
       d="m 38.785388,1039.2187 2.285662,1.1428 -3.428493,2.2856 z"
       id="path5248"
       inkscape:connector-curvature="0" />
    <path
       style="display:inline;fill:#929292;fill-opacity:1;fill-rule:evenodd;stroke:none;stroke-width:1px;stroke-linecap:butt;stroke-linejoin:miter;stroke-opacity:1"
       d="m 7.5713241,1040.6472 3.4284929,2.2856 0,-3.4284 z"
       id="path5250"
       inkscape:connector-curvature="0" />
  </g>
</svg>
