<?xml version="1.0" encoding="UTF-8" standalone="no"?>
<!-- Created with Inkscape (http://www.inkscape.org/) -->

<svg
   xmlns:dc="http://purl.org/dc/elements/1.1/"
   xmlns:cc="http://creativecommons.org/ns#"
   xmlns:rdf="http://www.w3.org/1999/02/22-rdf-syntax-ns#"
   xmlns:svg="http://www.w3.org/2000/svg"
   xmlns="http://www.w3.org/2000/svg"
   xmlns:sodipodi="http://sodipodi.sourceforge.net/DTD/sodipodi-0.dtd"
   xmlns:inkscape="http://www.inkscape.org/namespaces/inkscape"
   width="48"
   height="48"
   viewBox="0 0 48 48"
   id="svg6395"
   version="1.1"
   inkscape:version="0.91 r13725"
   sodipodi:docname="MH-Wing Icon White.svg"
   inkscape:export-filename="C:\Users\gabie\Pictures\Custom Icons\Wiki Icons\Mantle Icon.png"
   inkscape:export-xdpi="523.63519"
   inkscape:export-ydpi="523.63519">
  <defs
     id="defs6397" />
  <sodipodi:namedview
     id="base"
     pagecolor="#ffffff"
     bordercolor="#666666"
     borderopacity="1.0"
     inkscape:pageopacity="0.0"
     inkscape:pageshadow="2"
     inkscape:zoom="2.8"
     inkscape:cx="-30.829212"
     inkscape:cy="-4.5899205"
     inkscape:document-units="px"
     inkscape:current-layer="layer1"
     showgrid="true"
     units="px"
     inkscape:object-nodes="true"
     inkscape:window-width="1304"
     inkscape:window-height="745"
     inkscape:window-x="-8"
     inkscape:window-y="-8"
     inkscape:window-maximized="1"
     showguides="true"
     inkscape:guide-bbox="true">
    <inkscape:grid
       type="xygrid"
       id="grid6979" />
    <sodipodi:guide
       position="24,3"
       orientation="1,0"
       id="guide4164" />
  </sodipodi:namedview>
  <metadata
     id="metadata6400">
    <rdf:RDF>
      <cc:Work
         rdf:about="">
        <dc:format>image/svg+xml</dc:format>
        <dc:type
           rdf:resource="http://purl.org/dc/dcmitype/StillImage" />
        <dc:title></dc:title>
      </cc:Work>
    </rdf:RDF>
  </metadata>
  <g
     inkscape:label="Layer 1"
     inkscape:groupmode="layer"
     id="layer1"
     transform="translate(0,-1004.3622)">
    <path
       style="display:inline;fill:#c0c0c0;fill-opacity:1;fill-rule:evenodd;stroke:none;stroke-width:1px;stroke-linecap:butt;stroke-linejoin:miter;stroke-opacity:1"
       d="m 43,1007.3622 1,1 -1,2 -10,5 5,7 3,0 3,1 -1,2 -8,7 2,8 2,0 1,2 0,6 -2,1 -9,0 0,-8 -2,-4 -7,-3 -11.0000003,0 0,-8 5.0000003,-7 8,-6 10,-5 9,-1 z"
       id="path5011"
       inkscape:connector-curvature="0" />
    <path
       style="display:inline;fill:#ffffff;fill-opacity:1;fill-rule:evenodd;stroke:none;stroke-width:1px;stroke-linecap:butt;stroke-linejoin:miter;stroke-opacity:1"
       d="m 43,1010.3622 -7,1 -12,5 -7,6 -3,5 0,2 7,-1 19,-5 2,-1 2,1 -1,2 -19,6 2,2 4,2 2,4 1,1 4,0 1,-4 5,-9 0,-2 1,-2 -3,-1 -4,-3 1,-4 3,-3 z"
       id="path5009"
       inkscape:connector-curvature="0"
       sodipodi:nodetypes="ccccccccccccccc" />
    <path
       style="display:inline;fill:none;fill-rule:evenodd;stroke:#000000;stroke-width:2;stroke-linecap:round;stroke-linejoin:round;stroke-miterlimit:4;stroke-dasharray:none;stroke-opacity:1"
       d="m 41,1007.3622 c -13,0 -32.0000003,11 -32.0000003,23 l 0,3 c 0,0 0,1 1,1 l 7.0000003,0 c 4,0 12,2 12,8 l 0,6 c 0,0 0,1 1,1 l 8,0 c 0,0 2,0 2,-2 l 0,-5 c 0,0 0,-2 -2,-2 l -1,0 c 0,-5 7,-15 7,-16 0,-1 -1,-2 -2,-2 -1,0 -5,-1 -5,-5 0,-4 7,-7 7,-8 0,-2 -1,-2 -3,-2 z"
       id="path4984"
       inkscape:connector-curvature="0"
       sodipodi:nodetypes="sscssscscscscsssss" />
    <path
       id="path4990"
       style="display:inline;fill:none;fill-rule:evenodd;stroke:#000000;stroke-width:2;stroke-linecap:round;stroke-linejoin:round;stroke-miterlimit:4;stroke-dasharray:none;stroke-opacity:1"
       d="m 32,1040.3622 0,5 c 0,0 0,1 1,1 l 3,0 c 0,0 1,0 1,-1 l 0,-1 c 0,0 0,-1 -1,-1 l -1,0 m 2,-3 -5,0 c 0,-5 -5,-8 -10,-8 l 21,-7 m 0,-15 c -10,0 -29,9 -29,19 8,0 28,-7 28,-7"
       inkscape:connector-curvature="0"
       sodipodi:nodetypes="ccscscscccccccc" />
    <path
       style="display:inline;fill:#c0c0c0;fill-opacity:1;fill-rule:evenodd;stroke:#000000;stroke-width:2;stroke-linecap:round;stroke-linejoin:round;stroke-miterlimit:4;stroke-dasharray:none;stroke-opacity:1"
       d="m 23,1044.3622 c 0,0 -1,0 -1,-1 0,-1 0,-5 0,-5 0,0 0,-1 -1,-1 -1,0 -12.0000003,0 -12.0000003,0 0,0 -1,0 -1,1 0,1 0,6 0,6 l 2,-2 2.0000003,2 2,-2 3,3 -9.0000003,0 0,2 c 0,0 0,1 1,1 1,0 18.0000003,0 18.0000003,0 0,0 1,0 1,-1 0,-1 0,-2 0,-2 0,0 0,-1 -1,-1 -1,0 -4,0 -4,0 z"
       id="path4993"
       inkscape:connector-curvature="0" />
    <circle
       style="display:inline;opacity:1;fill:#ffffff;fill-opacity:1;fill-rule:nonzero;stroke:none;stroke-width:1;stroke-linecap:round;stroke-linejoin:round;stroke-miterlimit:4;stroke-dasharray:none;stroke-dashoffset:0;stroke-opacity:1"
       id="path4995"
       cx="18.5"
       cy="1040.8622"
       r="1.5" />
    <path
       style="display:inline;fill:#929292;fill-opacity:1;fill-rule:evenodd;stroke:none;stroke-width:1px;stroke-linecap:butt;stroke-linejoin:miter;stroke-opacity:1"
       d="m 19,1025.3622 2,-3 2,2 z"
       id="path4997"
       inkscape:connector-curvature="0" />
    <path
       style="display:inline;fill:#929292;fill-opacity:1;fill-rule:evenodd;stroke:none;stroke-width:1px;stroke-linecap:butt;stroke-linejoin:miter;stroke-opacity:1"
       d="m 26,1021.3622 4,-3 1,3 z"
       id="path4999"
       inkscape:connector-curvature="0" />
    <path
       style="display:inline;fill:#929292;fill-opacity:1;fill-rule:evenodd;stroke:none;stroke-width:1px;stroke-linecap:butt;stroke-linejoin:miter;stroke-opacity:1"
       d="m 32,1033.3622 4,-3 -1,5 z"
       id="path5001"
       inkscape:connector-curvature="0" />
    <path
       style="display:inline;fill:#474747;fill-opacity:1;fill-rule:evenodd;stroke:#000000;stroke-width:2;stroke-linecap:round;stroke-linejoin:round;stroke-miterlimit:4;stroke-dasharray:none;stroke-opacity:1"
       d="m 12,1019.3622 -3.0000003,5 -3,-5 z"
       id="path5003"
       inkscape:connector-curvature="0"
       sodipodi:nodetypes="cccc" />
    <path
       style="display:inline;fill:#474747;fill-opacity:1;fill-rule:evenodd;stroke:#000000;stroke-width:2;stroke-linecap:round;stroke-linejoin:round;stroke-miterlimit:4;stroke-dasharray:none;stroke-opacity:1"
       d="m 7.9999997,1024.3622 0,5 -4.9999997,-3 z"
       id="path5005"
       inkscape:connector-curvature="0"
       sodipodi:nodetypes="cccc" />
    <path
       style="display:inline;fill:#474747;fill-opacity:1;fill-rule:evenodd;stroke:#000000;stroke-width:2;stroke-linecap:round;stroke-linejoin:round;stroke-miterlimit:4;stroke-dasharray:none;stroke-opacity:1"
       d="m 7.9999997,1029.3622 0,5 -4.9999997,0 z"
       id="path5007"
       inkscape:connector-curvature="0"
       sodipodi:nodetypes="cccc" />
  </g>
</svg>
